<?xml version="1.0" encoding="UTF-8"?>
<svg id="Layer_1" xmlns="http://www.w3.org/2000/svg" viewBox="0 0 751.66 555.55">
  <defs>
    <style>
      .cls-1 {
        fill: #fff;
      }
    </style>
  </defs>
  <path d="M15.19,243.42c2.48-.77,4.92-1.8,7.47-2.26,2.98-.54,4.52-2.01,4.36-5.01-.22-3.98-.18-8.02-.95-11.9-1.42-7.12,1.35-12.66,6.38-16.96,3.2-2.74,4.77-5.53,4.36-9.62-.22-2.23-.02-4.51-.36-6.71-1.41-9.06,2.03-15.21,10.67-18.81.46-.19.93-.41,1.41-.5,10.06-1.67,8.54-4.56,8.4-12.6-.05-2.96-.9-5.91-1.48-8.84-1.52-7.7,1.83-13.71,9.45-15.72,6.02-1.59,12.22-2.49,18.34-3.65,10.42-1.98,20.84-3.97,31.28-5.86,5.97-1.08,9.63.82,12.61,6.22,2.96,5.36,8.22,7.63,13.88,5.37,1.36-.54,2.82-3.03,2.75-4.55-.26-5.57-.88-11.15-1.87-16.64-1.16-6.45.94-11.07,7.34-13,5.35-1.61,10.93-2.52,16.44-3.58,14.96-2.87,30-5.35,44.87-8.59,8-1.74,16.88,3.81,18.63,12.17.84,4.03,1.74,8.05,2.43,12.11.54,3.13,2.22,4.65,5.37,4.46,4.22-.26,8.45-.52,12.66-.89,3.89-.34,6.22-2.65,7.81-6.11,10.04-21.89,20.39-43.63,30.13-65.65,4.9-11.07,12.55-16.99,24.62-19.11,26.55-4.66,52.94-10.24,79.37-15.57,4.84-.98,8.3,1.36,11.51,4.09,11.69,9.94,23.27,20,34.81,30.12,13.41,11.77,26.86,23.49,39.99,35.56,4.54,4.17,9.42,5.39,15.09,4.4,11.56-2.01,23.09-4.17,34.64-6.29,3.44-.63,5.44-2.58,5.08-6.2-.46-4.58-.63-9.27-1.82-13.67-2.64-9.8,4.21-16.69,11.55-18.2,8.68-1.78,17.36-3.56,26.06-5.26,13.6-2.66,27.21-5.23,40.81-7.89,8.68-1.7,16.01,2.53,18.45,11.05,1.34,4.67,2.23,9.47,3.23,14.23,1.36,6.51,1.94,7.02,8.72,6.96.62,0,1.25,0,1.87-.04,9.92-.67,14.68,2.74,17.34,12.43.2.72.46,1.44.52,2.18.53,6.19,3.24,10.41,9.21,13.23,6.18,2.92,8.54,9.24,9.86,15.61,2.32,11.24,1.18,10.83,13.28,10.38,6.45-.24,11.05,2.29,14.81,7.09,4.76,6.09,4.59,12.75-1.36,17.62-3.22,2.64-7.47,4.35-11.53,5.54-3.2.94-5.1,2.26-4.71,5.51.78,6.54,1.58,13.1,2.89,19.55,8.92,43.77,18.01,87.51,26.96,131.27,5.28,25.79,10.02,51.7,15.77,77.39,2.94,13.13-7.28,29.2-16.97,33.38-3.65,1.57-7.41,3.09-11.28,3.9-36.78,7.67-73.61,15.06-110.38,22.77-30.78,6.46-61.5,13.23-92.24,19.87-3.41.74-6.79,1.74-10.25,2.18-2.77.36-5.64.18-8.45.01-6.22-.37-12.33-.99-18.42,1.52-5.64,2.31-11.65,3.69-17.41,5.73-3,1.06-5.76,2.79-8.71,3.99-4.03,1.63-8.02,3.63-12.23,4.47-28.63,5.74-57.33,11.15-85.98,16.8-27.67,5.46-55.32,11.04-82.96,16.62-28.87,5.83-57.74,11.73-86.6,17.62-15.9,3.24-31.91,6.02-47.64,9.94-18.57,4.63-35.7-9.65-38.96-25.78-4.2-20.79-8.41-41.59-12.61-62.38-5.85-28.99-11.68-57.98-17.55-86.97-5.67-28.01-11.39-56.01-17.1-84.01-1.42-6.95-2.06-7.42-9.22-7.41-4.88,0-9.99,2.01-14.45-1.65,0-2.25,0-4.49,0-6.74,1.31.38,2.6.9,3.94,1.12,5.42.91,9.91-3.58,9.07-8.96-.94-5.96-6.79-8.5-13-5.64,0-1.75,0-3.5,0-5.24ZM402.9,118c-8.2.49-13.94.64-19.65,1.21-38.79,3.86-73.45,17.66-102.36,44.12-34.67,31.72-54.07,71.4-57.76,118.16-3.47,44.03,8.69,83.89,36.45,118.37,32.34,40.18,74.83,62.27,126.02,66.94,42.74,3.9,82.21-6.43,117.06-31.63,33.23-24.02,55.82-56.05,67.26-95.56,13.5-46.65,9.32-91.86-15.31-133.75-34.32-58.36-87.72-84.82-151.7-87.85ZM88.24,438.37c1.96-.46,3.98-.99,6.03-1.4,8.32-1.65,16.64-3.3,24.98-4.86,2.1-.39,3.5-.88,2.93-3.57-.55-2.63-1.97-2.21-3.85-1.79-9.02,2-18.05,3.91-27.09,5.8-1.91.4-4.13,1.73-4.9-1.78-.81-3.7,1.89-3.43,3.94-3.85,8.68-1.76,17.38-3.44,26.07-5.14,4.82-.94,4.96-1.18,2.97-6.01-10.33,2.09-20.72,4.13-31.08,6.31-1.95.41-3.35.66-3.9-1.82-.54-2.41.64-2.96,2.69-3.36,9.18-1.8,18.33-3.75,27.5-5.61,4.6-.94,4.68-1.05,2.69-5.82-1.13.2-2.34.37-3.53.62-8.92,1.85-17.83,3.73-26.75,5.57-4.49.93-4.81.62-4.67-4.37.76-.22,1.56-.51,2.39-.68,9.17-1.89,18.33-3.75,27.5-5.62,4.71-.96,4.95-1.47,2.66-5.98-11.15,2.35-22.35,4.71-33.94,7.15-.4-1.94-.74-3.57-1.11-5.36,1.18-.31,1.99-.56,2.82-.72,9.18-1.83,18.36-3.62,27.53-5.49,4.73-.97,4.88-1.41,2.58-6.13-11.1,2.34-22.27,4.7-33.34,7.03-2.2-4.82-2.12-5.11,2.49-6.06,8.92-1.84,17.87-3.53,26.78-5.4,4.41-.93,4.55-1.46,2.25-5.79-11.27,2.31-22.56,4.63-34.13,7-.36-1.98-.62-3.39-.92-5,1.37-.35,2.43-.67,3.5-.88,9.17-1.86,18.35-3.68,27.52-5.56,1.73-.36,3.92-.27,3.34-3.27-.59-3.07-2.41-2.37-4.47-1.94-10.23,2.13-20.49,4.17-30.67,6.22-2.1-4.74-2-5.02,2.48-5.94,8.92-1.83,17.86-3.59,26.78-5.42,4.44-.91,4.58-1.28,2.52-5.99-1.12.2-2.33.37-3.52.63-9.27,1.99-18.56,3.93-27.81,6.03-2.39.54-3.42-.07-3.85-2.48-.54-3.06,1.78-2.85,3.44-3.19,9.04-1.85,18.11-3.57,27.16-5.41,4.52-.92,4.86-1.9,2.22-5.89-11.28,2.39-22.58,4.78-34.11,7.21-.4-1.83-.67-3.11-1.07-4.95,10.49-2.16,20.71-4.28,30.94-6.37,4.48-.92,4.77-1.52,2.42-5.79-10.16,2.18-20.39,4.37-30.61,6.59-1.89.41-3.71,1-4.36-1.76-.72-3.03,1.65-2.91,3.33-3.27,9.15-1.97,18.32-3.82,27.48-5.75,4.32-.91,4.42-1.18,2.34-5.76-10.12,2.21-20.34,4.43-30.55,6.7-2.01.45-3.89,1.23-4.59-1.82-.73-3.18,1.55-3.15,3.44-3.54,9.29-1.88,18.6-3.7,27.89-5.61,1.71-.35,3.94-.26,3.23-3.32-.68-2.91-2.49-2.12-4.31-1.73-9.27,2-18.55,4-27.82,5.99-4.01.86-4.54.31-4.02-4.45,10.16-2.07,20.41-4.18,30.67-6.23,4.27-.85,4.63-1.7,2.1-5.77-11.28,2.38-22.6,4.77-33.81,7.14-2.17-4.42-1.98-4.83,2.36-5.75,9.16-1.93,18.33-3.8,27.47-5.79,4.34-.95,4.39-1.21,2.36-5.54-.81.12-1.67.21-2.51.39-9.76,2.11-19.51,4.23-29.27,6.34-2.77.6-4.59-.74-3.78-3.08.35-1.01,2.08-1.93,3.34-2.2,9.51-2.05,19.06-3.93,28.6-5.84,1.81-.36,3.4-.64,2.91-3.26-.54-2.94-2.34-2.27-4.2-1.87-9.64,2.06-19.32,3.97-28.91,6.26-2.97.71-4.13-.22-4.79-2.83-.73-2.9-1.42-5.83-2.43-8.64-.42-1.15-1.62-2.02-2.47-3.02-.49,1.32-1.41,2.64-1.39,3.95.06,4.47.53,8.93.69,13.4.11,3.06-.58,6.25,0,9.19,12.02,60.08,24.16,120.13,36.3,180.18.88,4.35,1.96,8.66,3.03,13.36,60.15-11.89,119.77-23.68,179.92-35.57-2.66-3.96-4.51-6.13-9.22-5.19-52.62,10.5-105.3,20.71-157.96,31q-6.06,1.18-6.81-5c-.04-.35.09-.72.18-1.4,9.96-1.97,19.99-3.91,29.99-5.95,4.29-.87,4.42-1.25,2.66-5.78-1.12.18-2.32.34-3.51.59-9.16,1.94-18.32,3.86-27.46,5.88-1.9.42-3.08.24-3.63-1.9-.58-2.24.27-3.3,2.38-3.7.73-.14,1.45-.39,2.18-.53,8.46-1.61,16.92-3.2,25.38-4.81,4.54-.86,4.92-1.79,2.39-5.96-11.13,2.3-22.3,4.61-33.65,6.96-.41-2.04-.7-3.46-1.09-5.39,11.71-2.37,23.1-4.68,34.74-7.04-.53-2.03-.89-3.43-1.32-5.07-10.34,2.07-20.35,4.08-30.37,6.1-4.23.85-4.49.64-4.7-4.28,1.22-.33,2.5-.76,3.81-1.03,8.68-1.74,17.37-3.48,26.07-5.16,4.76-.92,5-1.33,2.84-6.03-9.92,2.05-19.92,4.14-29.92,6.17-4.47.91-4.66.72-5.09-4.44ZM39.27,252.82c.9.05,1.15.12,1.39.08,41.66-7.94,83.32-15.89,124.97-23.87,3.91-.75,5.15-2.18,4.06-6.41-3-11.66-1.73-24.61-10.7-35.08,3.53-.32,5.92.93,7.29,3.59,1.13,2.18,1.95,4.62,2.41,7.04,1.87,9.69,3.55,19.41,5.36,29.48,4.81-1.22,10.31-2.73,15.87-3.99,2.78-.63,3.61-1.88,3.04-4.74-2.19-11.01-4.25-22.04-6.21-33.09-1.37-7.75-1.71-7.26-7.88-6.02-1.82.37-3.74.21-5.56.56-41.06,7.78-82.14,15.5-123.15,23.57-4.45.88-8.8,3.37-12.62,5.97-3.59,2.44-5.83,6.43-4.94,11.05,2.05,10.63,4.41,21.2,6.67,31.88ZM261.79,114.83c67.62-12.82,134.29-25.47,201.42-38.2-.82-.97-1.16-1.49-1.61-1.88-9.69-8.44-19.29-16.98-29.18-25.18-1.5-1.24-4.42-1.6-6.47-1.21-44.14,8.29-88.2,17.09-132.42,24.91-9.92,1.75-16.04,5.26-19.43,14.98-3.09,8.87-7.86,17.16-12.3,26.59ZM629.48,96.04c-.6.11-1.46.25-2.31.41-15.92,3.11-31.85,6.16-47.75,9.36-24.56,4.94-49.11,9.97-73.64,15.04-1.21.25-3.35,1.38-3.27,1.75,1.14,5.81,2.56,11.57,3.96,17.33.07.27.59.42.9.64,7.36,5.36,14.66,10.79,22.11,16.01,1.38.97,3.44,1.63,5.08,1.45,5.69-.61,11.35-1.51,16.98-2.57,12.38-2.31,24.73-4.79,37.1-7.19,16.9-3.28,33.79-6.59,50.71-9.78,2.75-.52,3.94-1.51,3.22-4.45-.74-3.02-1.15-6.13-1.71-9.19-1.34-7.24-2.58-14.49-4.08-21.69-.93-4.47-3.84-7.2-7.28-7.13ZM95.18,516.28c1.27,1.96,1.96,3.27,2.87,4.38,6.96,8.42,16.03,10.49,26.31,8.42,32.29-6.48,64.58-12.92,96.83-19.55,40.78-8.38,81.52-16.93,122.28-25.43,3.41-.71,6.78-1.59,9.91-2.32-7.75-3.46-15.31-6.91-22.96-10.18-1.41-.6-3.18-.84-4.69-.62-7.86,1.19-15.73,2.41-23.52,3.95-63.14,12.51-126.27,25.08-189.4,37.65-5.6,1.12-11.19,2.34-17.64,3.7ZM490.03,131.9c0-1.26.15-1.9-.02-2.45-3.36-10.83-6.42-21.78-10.26-32.44-3.04-8.43-6.68-10.02-15.31-8.37-50.48,9.66-100.95,19.32-151.43,28.99-16.54,3.17-33.09,6.27-49.61,9.56-6.37,1.27-9.39,4.92-9.96,11.33-.15,1.74-.26,3.5-.14,5.23.67,8.95,1.41,17.9,2.16,26.85.13,1.52.4,3.02.74,5.55,29.31-34.76,65.71-55.33,109.18-63.59,43.68-8.3,85.05-1.16,124.66,19.33ZM418.11,37.99c-1.27-1.35-1.95-2.2-2.75-2.9-5.61-4.94-11.33-9.77-16.86-14.8-2.75-2.5-5.62-3.16-9.26-2.39-11.46,2.43-22.97,4.65-34.47,6.89-15.66,3.04-31.37,5.89-46.99,9.12-3.15.65-7.31,1.81-8.79,4.14-4.91,7.71-8.81,16.06-13.1,24.16l.83.93c43.51-8.33,87.03-16.66,131.39-25.15ZM42.79,185.04c.08.65.16,1.64.32,2.63q1.03,6.13,7.21,4.98c28.79-5.42,57.59-10.85,86.38-16.28,12.13-2.28,24.29-4.38,36.37-6.89,10.72-2.23,11.57-3.95,8.11-13.64-1.28-3.58-3.54-5.68-7.57-5.21-2.59.3-5.21.5-7.76,1.02-29.09,5.86-58.17,11.76-87.25,17.69-9.16,1.87-18.34,3.65-27.43,5.84-5.62,1.36-8.54,5.09-8.4,9.88ZM531.73,442.06c.06.18.12.36.19.54,1.45-.21,2.91-.35,4.35-.63,31.67-6.3,63.34-12.59,94.99-18.95,16.87-3.39,33.74-6.82,50.58-10.39,7.99-1.69,13.17-8.22,13.02-15.61-.06-3.13-1.12-4.16-4.33-3.46-7.43,1.63-15,2.68-22.37,4.51-10.1,2.51-20.88,2.47-30.23,7.87-.52.3-1.19.36-1.81.44-5.29.65-10.64,1-15.86,1.97-18.75,3.49-37.46,7.16-56.17,10.86-1.74.34-3.59,1.11-4.93,2.22-4.85,4.04-9.3,8.6-14.3,12.43-4.07,3.12-8.72,5.49-13.11,8.19ZM494.1,97.02c1,3.58,2.06,6.76,2.76,10.02.52,2.41,1.62,2.89,3.95,2.46,9.31-1.74,18.68-3.11,27.97-4.94,32.53-6.41,65.04-12.97,97.56-19.41,3.25-.64,4.95-1.94,3.88-5.53-.64-2.14-.83-4.44-1.59-6.53-.3-.83-1.62-1.89-2.42-1.84-3.59.22-7.19.59-10.73,1.27-18.38,3.5-36.76,7.06-55.11,10.7-20.41,4.05-40.8,8.2-61.19,12.34-1.67.34-3.28.93-5.08,1.46ZM672.32,154.01c.92,4.53,1.72,8.55,2.55,12.57,13.05,63.41,26.1,126.82,39.18,190.23.66,3.19,1.47,6.27-3.49,6.81.53,2.32.98,4.31,1.52,6.66,4.13-.86,7.83-1.63,12.17-2.53-15.23-74.28-30.34-148-45.51-222.02-3.96.8-7.04,1.29-10.02,2.12-.75.21-1.61,1.44-1.73,2.29-.51,3.65,1.32,4.96,5.33,3.87ZM242.33,167.41c-.9-.1-1.29-.25-1.62-.17-10.94,2.34-21.84,4.89-32.82,6.96-3.95.75-4.09,2.63-3.32,5.73,1.02,4.1,1.88,8.25,2.73,12.4,1.82,8.88,3.59,17.76,5.45,26.98,4.65-.79,9.1-1.27,13.39-2.39,1.78-.47,3.7-1.98,4.71-3.56,4.61-7.24,8.96-14.65,13.32-22.05.59-.99,1.1-2.32.97-3.4-.82-6.79-1.83-13.56-2.8-20.49ZM225.2,429.11c-.17-11.51-10.07-21.15-21.51-20.95-10.79.19-19.87,9.84-19.67,20.9.21,11.69,9.28,20.62,20.81,20.47,11.58-.15,20.54-9.13,20.37-20.43ZM44.85,273.96c1.01-.16,2.1-.29,3.17-.5,28.62-5.68,57.25-11.33,85.86-17.08,26.64-5.36,53.24-10.91,79.9-16.18,3.87-.77,4.91-2.98,5.43-6.49-7.7,1.13-15.12,1.97-22.44,3.36-11.77,2.22-23.45,4.84-35.19,7.23-38.02,7.71-76.04,15.38-114.06,23.11-4.63.94-4.91,1.78-2.68,6.57ZM169.36,349.57c.03,14.18,11.36,25.09,26.11,25.15,14.29.06,25.75-11.17,25.64-25.13-.12-14.81-11.45-26.13-26.12-26.1-14.44.03-25.66,11.45-25.63,26.09ZM187.35,147.58c.09.39.18.78.26,1.17,8.71,1.53,16.2,5.07,21.51,12.36.32.44,1.37.63,1.99.5,9.26-1.93,18.52-3.89,27.74-6.01.9-.21,2.21-1.59,2.2-2.4-.11-5.32-.54-10.64-.87-16.11-.98,0-1.6-.09-2.18.01-15.94,2.93-31.88,5.85-47.8,8.86-1.01.19-1.9,1.05-2.85,1.6ZM552.16,170.43c1.4,3.69,3.23,4.94,6.61,4.33,7.23-1.31,14.57-2.1,21.79-3.45,20.34-3.81,40.65-7.8,60.97-11.71,5.28-1.02,5.41-1.24,3.27-7.22-30.66,5.98-61.42,11.97-92.64,18.06ZM688.73,367.88c-1.25.17-2.58.28-3.88.53-5.39,1.04-10.77,2.12-16.16,3.18-18.85,3.71-37.71,7.4-56.56,11.15-5.01,1-7.26,3.14-7.72,7.46,2.15-.19,4.26-.2,6.3-.59,24.75-4.76,49.49-9.57,74.23-14.36,5.78-1.12,5.79-1.09,3.78-7.36ZM63.53,152.8c14.94-2.86,29.69-5.69,44.88-8.6-.79-3.98-1.5-7.58-2.28-11.52-1.54.2-2.75.28-3.93.51-10.75,2.13-21.51,4.23-32.24,6.46-10.65,2.22-10.64,2.29-6.44,13.14ZM650.97,92.24c4.98,3.8,7.67,8.39,8.49,14.06.41,2.83,1.05,5.63,1.64,8.44,1.25,5.93,2.54,11.85,3.89,18.16,3.56-.79,6.66-1.48,10.06-2.23-.32-1.95-.52-3.54-.85-5.1-1.65-7.93-3.28-15.86-5-23.77-1.78-8.18-9.04-12.26-18.23-9.56ZM65.87,166.25c3.81-.76,7.21-1.43,10.62-2.11,10.49-2.08,20.98-4.19,31.48-6.22,2.79-.54,2.77-2.23,2.29-4.43-.46-2.12-1.12-3.2-3.75-2.65-12.79,2.64-25.61,5.18-38.46,7.49-3.49.62-3.99,2.21-3.04,5.08.27.81.5,1.63.87,2.85ZM240.98,124.89c-5.44.91-10.58,1.69-15.69,2.64-11.4,2.12-22.78,4.36-34.19,6.45-2.05.38-2.7,1.06-2.19,3.24.68,2.88,2.53,2.18,4.34,1.84,14.57-2.79,29.14-5.65,43.72-8.37,2.99-.56,4.41-1.96,4.01-5.8ZM135.22,151.56c1.54-.21,2.64-.3,3.72-.51,10.04-1.97,20.08-3.96,30.12-5.94,5.57-1.1,5.79-1.54,3.35-7.59-11.13,2.29-22.37,4.51-33.55,6.98-3.28.72-3.67,3.61-3.63,7.07ZM686.21,128.63c.06,4.51,3.41,7.94,7.7,7.87,4.42-.07,7.78-3.45,7.8-7.83.02-4.39-3.65-8.08-8.04-8.1-4.28-.01-7.52,3.49-7.46,8.06ZM174.71,129.03c-1.54-7.61-3.06-15.03-4.56-22.46-.38-1.88-.58-3.78-3.42-3.11-2.42.57-3.32,1.72-2.75,4.24,1.37,6.06,2.57,12.17,3.85,18.25,1.13,5.38,1.15,5.39,6.88,3.07ZM179.2,101.69c-5.32-.14-5.93.41-5.08,4.83,1.13,5.87,2.45,11.7,3.62,17.56,1.06,5.31,1.02,5.32,6.62,3.24-1.7-8.43-3.41-16.94-5.16-25.63ZM641.37,83c3.06-.59,5.52-.98,7.93-1.57.74-.18,1.69-.74,1.97-1.38.93-2.17-1.86-11.65-4.02-12.27-2.3-.67-5.03-.34-7.42.22-.57.13-.92,2.93-.7,4.41.5,3.42,1.41,6.78,2.25,10.59ZM612.48,33.55c1.93,8.69,3.72,16.81,5.57,25.16,2.29-.58,3.91-.99,5.88-1.49-1.49-6.48-2.7-12.56-4.33-18.53-.8-2.94-2.73-5.2-7.12-5.13ZM604.28,60.65c-.17-1.23-.28-2.57-.53-3.88-1.18-6.12-2.35-12.24-3.65-18.34-.34-1.61.03-4.14-3.09-3.49-2.8.59-1.79,2.61-1.49,4.15,1.25,6.49,2.77,12.92,3.93,19.42.56,3.13,1.85,3.79,4.84,2.13ZM714.19,404.24c6.94-2.72,12.13-10.48,10.8-17.53-2.61.63-5.26,1.11-7.79,1.97-.7.24-1.35,1.52-1.47,2.4-.62,4.41-1.06,8.86-1.55,13.16ZM545.14,72.57c-1.66-8.7-3.24-16.93-4.81-25.15-.4-.07-.8-.15-1.19-.22-.74,2.11-2.32,4.32-2.08,6.31.78,6.63,2.22,13.18,3.45,20.01,1.71-.35,2.9-.59,4.64-.95ZM164.3,130.27c-1.61-7.73-3.01-14.82-4.66-21.85-.25-1.05-1.66-1.83-2.53-2.74-.49,1.2-1.56,2.51-1.36,3.58,1.28,6.98,2.79,13.93,4.38,20.85.19.82,1.42,2.09,1.94,1.99.89-.17,1.6-1.27,2.23-1.83ZM589.73,36.92c-2.94-.43-3.54.79-3.05,3.19,1.44,7.06,2.74,14.15,4.27,21.19.17.8,1.51,1.34,2.31,2,.54-.94,1.68-1.99,1.52-2.79-1.56-7.9-3.34-15.76-5.04-23.59ZM577.9,40.39c1.67,8.12,3.18,15.7,4.86,23.24.12.54,1.44.82,2.2,1.22.37-.77,1.17-1.63,1.05-2.31-1.37-7.48-2.85-14.95-4.42-22.39-.14-.68-1.46-1.78-1.74-1.64-.83.39-1.4,1.3-1.95,1.87ZM569.2,42.12c1.65,8.05,3.15,15.62,4.83,23.16.12.56,1.44.85,2.2,1.27.38-.89,1.22-1.87,1.08-2.66-1.34-7.22-2.8-14.43-4.38-21.6-.17-.77-1.36-1.32-2.07-1.97-.58.64-1.16,1.28-1.65,1.81ZM60.11,282.77l.55.99c.35.08.72.29,1.05.23,9.27-1.79,18.55-3.58,27.8-5.48.69-.14,1.19-1.2,1.78-1.83-.86-.26-1.79-.89-2.57-.74-8.55,1.62-17.09,3.32-25.6,5.11-1.07.23-2,1.13-3,1.71ZM604.61,35.17c1.7,8.21,3.24,15.78,4.91,23.32.12.55,1.2.88,1.83,1.31.44-.97,1.41-2.05,1.25-2.91-1.38-7.22-2.93-14.41-4.55-21.58-.17-.74-1.12-1.3-1.71-1.94-.65.68-1.31,1.36-1.72,1.79ZM553,69.58c-1.57-7.74-2.95-14.84-4.5-21.9-.21-.95-1.24-1.73-1.89-2.59-.52,1.05-1.64,2.2-1.47,3.12,1.33,7.1,2.87,14.17,4.48,21.22.15.67,1.24,1.55,1.89,1.55.58,0,1.17-1.08,1.49-1.41ZM564.12,41.8c-3.15-.63-3.39.92-2.92,3.15,1.43,6.81,2.75,13.65,4.29,20.43.23,1.03,1.41,1.84,2.15,2.76.35-1.16,1.16-2.4.97-3.46-1.36-7.57-2.93-15.1-4.48-22.89ZM150.97,107.31c-.42-.06-.84-.11-1.26-.17-.49,1.23-1.57,2.57-1.37,3.68,1.25,7.11,2.74,14.18,4.27,21.23.12.57,1.18,1.35,1.75,1.3.52-.04,1.44-1.16,1.35-1.65-1.5-8.15-3.14-16.27-4.74-24.39ZM555.92,43.06c-.42-.11-.84-.22-1.26-.34-.5.97-1.56,2.05-1.4,2.91,1.38,7.57,2.95,15.12,4.58,22.64.12.56,1.15.93,1.76,1.39.4-.64,1.19-1.3,1.14-1.9-.16-1.97-.58-3.93-.97-5.88-1.27-6.28-2.57-12.55-3.86-18.82ZM186.71,100.8c-.51.02-1.02.04-1.53.06-.11,1.18-.5,2.41-.28,3.53,1.27,6.35,2.65,12.69,4.12,19,.2.87,1.15,1.56,1.75,2.33.29-.95.98-1.97.82-2.83-1-5.26-2.17-10.49-3.33-15.73-.47-2.13-1.03-4.24-1.55-6.35ZM203.81,97.03c-2.77,2.9,1.02,22.95,4.74,25.12-1.54-8.16-3.08-16.32-4.74-25.12ZM206.71,219.92l1.61-.32c-2.32-11.78-4.64-23.57-6.96-35.35l-1.43.28c2.26,11.8,4.52,23.59,6.79,35.39ZM198.28,124.01c.59-.09,1.19-.18,1.78-.28-.95-8.07-2.77-15.97-4.84-23.82-.65.13-1.3.26-1.95.38,1.67,7.9,3.34,15.81,5.01,23.71ZM214.84,120.84c.62-.08,1.25-.16,1.87-.24l-4.8-24.27c-.56.1-1.12.2-1.67.3.45,8.26,3.09,16.14,4.61,24.22ZM222.27,118.1l.98-.1c-.96-7-1.72-14.04-4.18-20.7-.39.08-.78.17-1.17.25,1.46,6.85,2.92,13.7,4.37,20.55Z"/>
  <path class="cls-1" d="M15.19,248.66c6.22-2.86,12.07-.32,13,5.64.85,5.38-3.65,9.87-9.07,8.96-1.34-.22-2.63-.74-3.94-1.12,0-4.49,0-8.99,0-13.48Z"/>
  <path class="cls-1" d="M402.9,118c63.99,3.03,117.38,29.48,151.7,87.85,24.63,41.89,28.81,87.09,15.31,133.75-11.43,39.51-34.03,71.54-67.26,95.56-34.85,25.2-74.32,35.53-117.06,31.63-51.2-4.67-93.69-26.76-126.02-66.94-27.75-34.48-39.92-74.34-36.45-118.37,3.69-46.75,23.09-86.44,57.76-118.16,28.91-26.45,63.58-40.26,102.36-44.12,5.71-.57,11.45-.72,19.65-1.21ZM569.47,297.02c-.07-59.77-25.33-108.78-69.21-139.78-26.43-18.67-55.96-29.02-88.21-31-42.29-2.6-81.28,7.68-114.92,33.72-38.77,30-61.29,69.82-65.89,118.92-4.31,45.94,8.84,86.73,39.04,121.59,29.58,34.15,67.47,53.65,112.14,58.56,48.42,5.32,91.75-7.79,128.52-40.37,38.28-33.92,57.21-76.83,58.54-121.64Z"/>
  <path class="cls-1" d="M88.24,438.37c.43,5.16.63,5.35,5.09,4.44,10-2.04,19.99-4.12,29.92-6.17,2.16,4.7,1.92,5.11-2.84,6.03-8.7,1.69-17.38,3.42-26.07,5.16-1.31.26-2.59.69-3.81,1.03.2,4.92.46,5.13,4.7,4.28,10.02-2.01,20.03-4.02,30.37-6.1.42,1.63.79,3.03,1.32,5.07-11.64,2.36-23.03,4.67-34.74,7.04.39,1.93.68,3.35,1.09,5.39,11.35-2.35,22.52-4.66,33.65-6.96,2.53,4.18,2.15,5.1-2.39,5.96-8.46,1.6-16.92,3.2-25.38,4.81-.73.14-1.45.39-2.18.53-2.11.4-2.95,1.46-2.38,3.7.55,2.14,1.73,2.32,3.63,1.9,9.14-2.02,18.3-3.94,27.46-5.88,1.18-.25,2.38-.4,3.51-.59,1.76,4.53,1.63,4.9-2.66,5.78-10.01,2.04-20.03,3.98-29.99,5.95-.09.67-.23,1.04-.18,1.4q.74,6.17,6.81,5c52.66-10.29,105.34-20.5,157.96-31,4.71-.94,6.56,1.22,9.22,5.19-60.15,11.89-119.77,23.68-179.92,35.57-1.07-4.7-2.15-9.01-3.03-13.36-12.14-60.05-24.29-120.1-36.3-180.18-.59-2.95.1-6.13,0-9.19-.16-4.47-.63-8.93-.69-13.4-.02-1.31.9-2.63,1.39-3.95.85,1,2.05,1.87,2.47,3.02,1.01,2.81,1.7,5.74,2.43,8.64.66,2.61,1.82,3.54,4.79,2.83,9.59-2.28,19.27-4.19,28.91-6.26,1.86-.4,3.66-1.06,4.2,1.87.48,2.61-1.1,2.89-2.91,3.26-9.54,1.91-19.09,3.8-28.6,5.84-1.25.27-2.99,1.18-3.34,2.2-.8,2.34,1.01,3.68,3.78,3.08,9.76-2.1,19.51-4.23,29.27-6.34.84-.18,1.7-.27,2.51-.39,2.03,4.33,1.98,4.6-2.36,5.54-9.14,1.99-18.31,3.86-27.47,5.79-4.34.92-4.53,1.32-2.36,5.75,11.21-2.37,22.52-4.76,33.81-7.14,2.53,4.07,2.17,4.92-2.1,5.77-10.26,2.05-20.51,4.16-30.67,6.23-.52,4.77,0,5.31,4.02,4.45,9.27-1.99,18.55-3.99,27.82-5.99,1.82-.39,3.64-1.18,4.31,1.73.71,3.06-1.52,2.97-3.23,3.32-9.29,1.91-18.6,3.72-27.89,5.61-1.9.38-4.18.36-3.44,3.54.7,3.05,2.58,2.27,4.59,1.82,10.2-2.27,20.42-4.48,30.55-6.7,2.08,4.58,1.98,4.85-2.34,5.76-9.16,1.93-18.33,3.78-27.48,5.75-1.67.36-4.05.23-3.33,3.27.66,2.76,2.47,2.17,4.36,1.76,10.22-2.22,20.45-4.41,30.61-6.59,2.35,4.27,2.06,4.87-2.42,5.79-10.23,2.09-20.46,4.21-30.94,6.37.4,1.84.68,3.13,1.07,4.95,11.53-2.44,22.83-4.83,34.11-7.21,2.64,3.99,2.3,4.97-2.22,5.89-9.05,1.83-18.12,3.55-27.16,5.41-1.66.34-3.99.12-3.44,3.19.43,2.41,1.46,3.03,3.85,2.48,9.25-2.1,18.53-4.04,27.81-6.03,1.19-.26,2.4-.43,3.52-.63,2.06,4.71,1.92,5.08-2.52,5.99-8.92,1.83-17.86,3.59-26.78,5.42-4.48.92-4.58,1.19-2.48,5.94,10.18-2.06,20.44-4.09,30.67-6.22,2.06-.43,3.88-1.13,4.47,1.94.57,3-1.61,2.91-3.34,3.27-9.17,1.89-18.35,3.7-27.52,5.56-1.07.22-2.13.53-3.5.88.3,1.61.55,3.02.92,5,11.56-2.37,22.86-4.69,34.13-7,2.3,4.33,2.16,4.86-2.25,5.79-8.91,1.87-17.86,3.56-26.78,5.4-4.61.95-4.69,1.24-2.49,6.06,11.07-2.33,22.24-4.69,33.34-7.03,2.3,4.72,2.14,5.16-2.58,6.13-9.17,1.88-18.35,3.66-27.53,5.49-.83.17-1.64.42-2.82.72.37,1.79.71,3.42,1.11,5.36,11.59-2.44,22.79-4.8,33.94-7.15,2.29,4.52,2.05,5.02-2.66,5.98-9.17,1.87-18.34,3.74-27.5,5.62-.83.17-1.63.46-2.39.68-.13,4.99.18,5.3,4.67,4.37,8.92-1.84,17.83-3.72,26.75-5.57,1.19-.25,2.4-.42,3.53-.62,1.99,4.76,1.91,4.88-2.69,5.82-9.17,1.87-18.32,3.82-27.5,5.61-2.04.4-3.23.95-2.69,3.36.55,2.48,1.96,2.23,3.9,1.82,10.36-2.18,20.74-4.23,31.08-6.31,1.99,4.83,1.86,5.07-2.97,6.01-8.69,1.7-17.39,3.38-26.07,5.14-2.05.41-4.75.14-3.94,3.85.77,3.51,2.98,2.18,4.9,1.78,9.04-1.88,18.08-3.8,27.09-5.8,1.89-.42,3.3-.84,3.85,1.79.57,2.69-.83,3.18-2.93,3.57-8.34,1.56-16.66,3.21-24.98,4.86-2.04.41-4.06.94-6.03,1.4Z"/>
  <path class="cls-1" d="M39.27,252.82c-2.25-10.68-4.61-21.25-6.67-31.88-.89-4.62,1.35-8.62,4.94-11.05,3.82-2.59,8.17-5.09,12.62-5.97,41.01-8.07,82.09-15.78,123.15-23.57,1.82-.35,3.75-.19,5.56-.56,6.17-1.24,6.5-1.73,7.88,6.02,1.96,11.05,4.02,22.09,6.21,33.09.57,2.86-.26,4.11-3.04,4.74-5.56,1.26-11.06,2.77-15.87,3.99-1.81-10.07-3.49-19.79-5.36-29.48-.47-2.42-1.28-4.85-2.41-7.04-1.37-2.66-3.76-3.9-7.29-3.59,8.97,10.47,7.7,23.43,10.7,35.08,1.09,4.23-.15,5.66-4.06,6.41-41.65,7.98-83.31,15.92-124.97,23.87-.23.04-.49-.02-1.39-.08ZM148.01,199.91c-5.67.02-10.45,4.88-10.37,10.54.07,5.64,5.01,10.41,10.65,10.29,5.59-.12,10.92-5.46,10.79-10.81-.13-5.22-5.46-10.05-11.07-10.03Z"/>
  <path class="cls-1" d="M261.79,114.83c4.44-9.42,9.21-17.71,12.3-26.59,3.39-9.72,9.51-13.23,19.43-14.98,44.23-7.82,88.28-16.62,132.42-24.91,2.05-.38,4.98-.03,6.47,1.21,9.89,8.2,19.49,16.74,29.18,25.18.45.39.79.91,1.61,1.88-67.13,12.73-133.8,25.37-201.42,38.2Z"/>
  <path class="cls-1" d="M629.48,96.04c3.43-.06,6.34,2.67,7.28,7.13,1.5,7.2,2.74,14.46,4.08,21.69.57,3.07.97,6.17,1.71,9.19.72,2.94-.47,3.93-3.22,4.45-16.92,3.18-33.81,6.5-50.71,9.78-12.37,2.4-24.72,4.87-37.1,7.19-5.63,1.05-11.29,1.95-16.98,2.57-1.64.18-3.7-.49-5.08-1.45-7.45-5.22-14.76-10.65-22.11-16.01-.3-.22-.83-.37-.9-.64-1.4-5.76-2.82-11.52-3.96-17.33-.07-.37,2.06-1.5,3.27-1.75,24.54-5.06,49.08-10.1,73.64-15.04,15.9-3.2,31.83-6.25,47.75-9.36.86-.17,1.72-.31,2.31-.41Z"/>
  <path class="cls-1" d="M95.18,516.28c6.46-1.36,12.04-2.58,17.64-3.7,63.13-12.57,126.26-25.15,189.4-37.65,7.8-1.54,15.66-2.76,23.52-3.95,1.51-.23,3.28.01,4.69.62,7.64,3.27,15.2,6.72,22.96,10.18-3.13.74-6.51,1.61-9.91,2.32-40.75,8.5-81.5,17.05-122.28,25.43-32.25,6.63-64.55,13.08-96.83,19.55-10.29,2.06-19.36,0-26.31-8.42-.92-1.11-1.6-2.42-2.87-4.38Z"/>
  <path class="cls-1" d="M490.03,131.9c-39.6-20.49-80.97-27.63-124.66-19.33-43.47,8.26-79.87,28.83-109.18,63.59-.34-2.53-.62-4.03-.74-5.55-.75-8.95-1.49-17.89-2.16-26.85-.13-1.73-.02-3.5.14-5.23.57-6.41,3.59-10.06,9.96-11.33,16.52-3.29,33.07-6.39,49.61-9.56,50.48-9.67,100.95-19.33,151.43-28.99,8.63-1.65,12.27-.06,15.31,8.37,3.84,10.66,6.9,21.61,10.26,32.44.17.55.02,1.19.02,2.45Z"/>
  <path class="cls-1" d="M418.11,37.99c-44.37,8.49-87.88,16.82-131.39,25.15l-.83-.93c4.29-8.1,8.19-16.45,13.1-24.16,1.48-2.33,5.64-3.49,8.79-4.14,15.62-3.23,31.33-6.08,46.99-9.12,11.5-2.23,23.01-4.46,34.47-6.89,3.63-.77,6.5-.11,9.26,2.39,5.53,5.03,11.24,9.86,16.86,14.8.8.71,1.48,1.55,2.75,2.9Z"/>
  <path class="cls-1" d="M42.79,185.04c-.14-4.79,2.77-8.53,8.4-9.88,9.08-2.19,18.27-3.97,27.43-5.84,29.08-5.92,58.16-11.82,87.25-17.69,2.55-.51,5.16-.72,7.76-1.02,4.02-.46,6.29,1.63,7.57,5.21,3.45,9.7,2.61,11.41-8.11,13.64-12.08,2.51-24.25,4.61-36.37,6.89-28.79,5.42-57.59,10.86-86.38,16.28q-6.18,1.16-7.21-4.98c-.16-.98-.25-1.98-.32-2.63Z"/>
  <path class="cls-1" d="M531.73,442.06c4.39-2.7,9.04-5.07,13.11-8.19,5-3.84,9.45-8.39,14.3-12.43,1.34-1.12,3.2-1.88,4.93-2.22,18.71-3.7,37.42-7.37,56.17-10.86,5.23-.97,10.57-1.32,15.86-1.97.61-.08,1.29-.14,1.81-.44,9.35-5.4,20.13-5.36,30.23-7.87,7.37-1.83,14.94-2.88,22.37-4.51,3.22-.71,4.27.33,4.33,3.46.15,7.39-5.03,13.92-13.02,15.61-16.84,3.56-33.7,7-50.58,10.39-31.66,6.36-63.33,12.65-94.99,18.95-1.44.29-2.9.43-4.35.63-.06-.18-.12-.36-.19-.54Z"/>
  <path class="cls-1" d="M494.1,97.02c1.8-.52,3.42-1.12,5.08-1.46,20.39-4.14,40.78-8.29,61.19-12.34,18.36-3.64,36.73-7.2,55.11-10.7,3.53-.67,7.14-1.05,10.73-1.27.8-.05,2.12,1.01,2.42,1.84.76,2.09.95,4.38,1.59,6.53,1.08,3.59-.62,4.88-3.88,5.53-32.53,6.44-65.03,13-97.56,19.41-9.29,1.83-18.66,3.2-27.97,4.94-2.33.43-3.43-.05-3.95-2.46-.7-3.26-1.76-6.45-2.76-10.02Z"/>
  <path class="cls-1" d="M672.32,154.01c-4.01,1.09-5.84-.22-5.33-3.87.12-.86.98-2.08,1.73-2.29,2.98-.83,6.05-1.32,10.02-2.12,15.17,74.02,30.28,147.74,45.51,222.02-4.34.9-8.04,1.67-12.17,2.53-.54-2.35-.99-4.34-1.52-6.66,4.96-.54,4.15-3.62,3.49-6.81-13.08-63.4-26.13-126.82-39.18-190.23-.83-4.02-1.63-8.05-2.55-12.57Z"/>
  <path class="cls-1" d="M242.33,167.41c.97,6.93,1.98,13.7,2.8,20.49.13,1.09-.38,2.41-.97,3.4-4.36,7.4-8.7,14.81-13.32,22.05-1.01,1.58-2.93,3.09-4.71,3.56-4.28,1.12-8.74,1.6-13.39,2.39-1.86-9.21-3.63-18.1-5.45-26.98-.85-4.15-1.71-8.29-2.73-12.4-.77-3.1-.63-4.98,3.32-5.73,10.99-2.07,21.89-4.62,32.82-6.96.34-.07.72.07,1.62.17Z"/>
  <path class="cls-1" d="M225.2,429.11c.17,11.3-8.79,20.28-20.37,20.43-11.52.15-20.6-8.78-20.81-20.47-.2-11.06,8.88-20.71,19.67-20.9,11.44-.2,21.34,9.44,21.51,20.95ZM203.05,414.85c-2.84.25-4.73,1.61-4.98,4.52-.22,2.6,2.29,5.01,4.9,4.98,2.69-.03,5.14-2.36,4.96-4.93-.21-2.95-2.13-4.26-4.88-4.57Z"/>
  <path class="cls-1" d="M44.85,273.96c-2.23-4.78-1.95-5.62,2.68-6.57,38.01-7.73,76.04-15.4,114.06-23.11,11.74-2.38,23.42-5,35.19-7.23,7.32-1.38,14.74-2.22,22.44-3.36-.52,3.51-1.56,5.72-5.43,6.49-26.66,5.28-53.26,10.83-79.9,16.18-28.61,5.75-57.24,11.4-85.86,17.08-1.07.21-2.16.34-3.17.5Z"/>
  <path class="cls-1" d="M169.36,349.57c-.03-14.64,11.19-26.06,25.63-26.09,14.67-.03,26,11.29,26.12,26.1.11,13.96-11.35,25.19-25.64,25.13-14.75-.06-26.08-10.97-26.11-25.15ZM195.29,366.97c9.85-.07,18.43-8.53,18.3-18.06-.12-9.31-8.8-17.71-18.31-17.72-9.77-.01-18.12,8.31-18.19,18.15-.07,9.36,8.54,17.71,18.2,17.64Z"/>
  <path class="cls-1" d="M187.35,147.58c.95-.55,1.83-1.41,2.85-1.6,15.92-3.01,31.86-5.94,47.8-8.86.58-.11,1.2-.01,2.18-.01.33,5.47.76,10.79.87,16.11.02.81-1.29,2.19-2.2,2.4-9.22,2.13-18.48,4.08-27.74,6.01-.62.13-1.67-.07-1.99-.5-5.31-7.29-12.8-10.83-21.51-12.36-.09-.39-.18-.78-.26-1.17Z"/>
  <path class="cls-1" d="M552.16,170.43c31.21-6.08,61.97-12.08,92.64-18.06,2.14,5.98,2.02,6.21-3.27,7.22-20.32,3.91-40.63,7.9-60.97,11.71-7.23,1.35-14.56,2.14-21.79,3.45-3.37.61-5.2-.64-6.61-4.33Z"/>
  <path class="cls-1" d="M688.73,367.88c2,6.27,2,6.25-3.78,7.36-24.74,4.79-49.48,9.61-74.23,14.36-2.04.39-4.15.4-6.3.59.46-4.31,2.71-6.46,7.72-7.46,18.85-3.74,37.7-7.43,56.56-11.15,5.39-1.06,10.77-2.15,16.16-3.18,1.3-.25,2.63-.36,3.88-.53Z"/>
  <path class="cls-1" d="M63.53,152.8c-4.2-10.86-4.21-10.92,6.44-13.14,10.73-2.24,21.49-4.33,32.24-6.46,1.18-.23,2.39-.32,3.93-.51.78,3.93,1.49,7.53,2.28,11.52-15.2,2.91-29.94,5.74-44.88,8.6Z"/>
  <path class="cls-1" d="M650.97,92.24c9.19-2.7,16.45,1.39,18.23,9.56,1.72,7.91,3.36,15.84,5,23.77.32,1.56.53,3.14.85,5.1-3.4.75-6.5,1.44-10.06,2.23-1.35-6.31-2.64-12.23-3.89-18.16-.59-2.8-1.23-5.6-1.64-8.44-.82-5.68-3.51-10.26-8.49-14.06Z"/>
  <path class="cls-1" d="M65.87,166.25c-.37-1.22-.6-2.04-.87-2.85-.94-2.87-.44-4.45,3.04-5.08,12.86-2.3,25.67-4.84,38.46-7.49,2.62-.54,3.28.54,3.75,2.65.48,2.19.5,3.89-2.29,4.43-10.5,2.03-20.99,4.14-31.48,6.22-3.4.68-6.81,1.35-10.62,2.11Z"/>
  <path class="cls-1" d="M240.98,124.89c.41,3.84-1.02,5.24-4.01,5.8-14.59,2.72-29.15,5.58-43.72,8.37-1.81.35-3.66,1.04-4.34-1.84-.51-2.18.14-2.86,2.19-3.24,11.41-2.1,22.78-4.33,34.19-6.45,5.11-.95,10.26-1.73,15.69-2.64Z"/>
  <path class="cls-1" d="M135.22,151.56c-.04-3.45.35-6.34,3.63-7.07,11.19-2.47,22.43-4.68,33.55-6.98,2.43,6.05,2.22,6.49-3.35,7.59-10.04,1.99-20.07,3.97-30.12,5.94-1.08.21-2.18.3-3.72.51Z"/>
  <path class="cls-1" d="M686.21,128.63c-.06-4.57,3.18-8.07,7.46-8.06,4.39.01,8.06,3.71,8.04,8.1-.02,4.38-3.39,7.76-7.8,7.83-4.29.07-7.64-3.36-7.7-7.87Z"/>
  <path class="cls-1" d="M174.71,129.03c-5.73,2.32-5.75,2.31-6.88-3.07-1.28-6.09-2.48-12.19-3.85-18.25-.57-2.52.32-3.67,2.75-4.24,2.84-.67,3.04,1.23,3.42,3.11,1.5,7.43,3.01,14.85,4.56,22.46Z"/>
  <path class="cls-1" d="M179.2,101.69c1.75,8.69,3.46,17.2,5.16,25.63-5.6,2.08-5.56,2.07-6.62-3.24-1.17-5.86-2.49-11.69-3.62-17.56-.85-4.42-.24-4.97,5.08-4.83Z"/>
  <path class="cls-1" d="M641.37,83c-.84-3.81-1.74-7.17-2.25-10.59-.22-1.48.13-4.28.7-4.41,2.39-.55,5.12-.88,7.42-.22,2.16.63,4.96,10.1,4.02,12.27-.27.64-1.22,1.2-1.97,1.38-2.41.59-4.86.98-7.93,1.57Z"/>
  <path class="cls-1" d="M612.48,33.55c4.39-.07,6.32,2.19,7.12,5.13,1.63,5.97,2.84,12.05,4.33,18.53-1.98.5-3.59.91-5.88,1.49-1.85-8.35-3.65-16.47-5.57-25.16Z"/>
  <path class="cls-1" d="M604.28,60.65c-2.99,1.66-4.28,1-4.84-2.13-1.16-6.5-2.68-12.94-3.93-19.42-.3-1.54-1.3-3.56,1.49-4.15,3.12-.66,2.74,1.88,3.09,3.49,1.3,6.09,2.47,12.22,3.65,18.34.25,1.31.37,2.65.53,3.88Z"/>
  <path class="cls-1" d="M714.19,404.24c.49-4.3.93-8.74,1.55-13.16.12-.88.77-2.17,1.47-2.4,2.52-.85,5.17-1.34,7.79-1.97,1.33,7.05-3.86,14.8-10.8,17.53Z"/>
  <path class="cls-1" d="M545.14,72.57c-1.74.36-2.93.6-4.64.95-1.23-6.83-2.66-13.38-3.45-20.01-.24-1.99,1.34-4.2,2.08-6.31.4.07.8.15,1.19.22,1.57,8.22,3.15,16.45,4.81,25.15Z"/>
  <path class="cls-1" d="M164.3,130.27c-.63.57-1.34,1.66-2.23,1.83-.52.1-1.75-1.17-1.94-1.99-1.59-6.92-3.09-13.86-4.38-20.85-.2-1.07.88-2.38,1.36-3.58.87.91,2.28,1.69,2.53,2.74,1.65,7.03,3.04,14.13,4.66,21.85Z"/>
  <path class="cls-1" d="M589.73,36.92c1.71,7.83,3.48,15.69,5.04,23.59.16.8-.98,1.86-1.52,2.79-.8-.66-2.13-1.21-2.31-2-1.54-7.04-2.83-14.13-4.27-21.19-.49-2.41.12-3.63,3.05-3.19Z"/>
  <path class="cls-1" d="M577.9,40.39c.54-.57,1.12-1.48,1.95-1.87.28-.13,1.59.96,1.74,1.64,1.58,7.44,3.05,14.91,4.42,22.39.13.68-.68,1.53-1.05,2.31-.76-.4-2.08-.68-2.2-1.22-1.68-7.55-3.2-15.13-4.86-23.24Z"/>
  <path class="cls-1" d="M569.2,42.12c.49-.53,1.07-1.17,1.65-1.81.72.65,1.9,1.2,2.07,1.97,1.58,7.17,3.04,14.38,4.38,21.6.15.79-.69,1.77-1.08,2.66-.76-.42-2.08-.71-2.2-1.27-1.67-7.53-3.18-15.11-4.83-23.16Z"/>
  <path class="cls-1" d="M60.11,282.77c1-.59,1.93-1.49,3-1.71,8.51-1.8,17.05-3.5,25.6-5.11.78-.15,1.71.47,2.57.74-.59.63-1.09,1.69-1.78,1.83-9.25,1.91-18.53,3.69-27.8,5.48-.32.06-.7-.15-1.05-.23l-.55-.99Z"/>
  <path class="cls-1" d="M604.61,35.17c.42-.43,1.07-1.11,1.72-1.79.59.64,1.55,1.2,1.71,1.94,1.62,7.17,3.17,14.36,4.55,21.58.16.86-.81,1.93-1.25,2.91-.63-.43-1.71-.77-1.83-1.31-1.67-7.54-3.21-15.12-4.91-23.32Z"/>
  <path class="cls-1" d="M553,69.58c-.32.33-.91,1.41-1.49,1.41-.66,0-1.74-.88-1.89-1.55-1.61-7.05-3.15-14.11-4.48-21.22-.17-.92.95-2.07,1.47-3.12.65.86,1.68,1.63,1.89,2.59,1.55,7.06,2.93,14.15,4.5,21.9Z"/>
  <path class="cls-1" d="M564.12,41.8c1.55,7.79,3.12,15.32,4.48,22.89.19,1.06-.62,2.3-.97,3.46-.74-.91-1.92-1.73-2.15-2.76-1.54-6.79-2.86-13.62-4.29-20.43-.47-2.23-.24-3.78,2.92-3.15Z"/>
  <path class="cls-1" d="M150.97,107.31c1.61,8.13,3.24,16.25,4.74,24.39.09.49-.83,1.61-1.35,1.65-.57.05-1.63-.73-1.75-1.3-1.53-7.06-3.03-14.12-4.27-21.23-.2-1.11.88-2.45,1.37-3.68.42.06.84.11,1.26.17Z"/>
  <path class="cls-1" d="M555.92,43.06c1.29,6.27,2.59,12.54,3.86,18.82.39,1.95.81,3.9.97,5.88.05.6-.74,1.27-1.14,1.9-.61-.46-1.64-.82-1.76-1.39-1.63-7.53-3.2-15.07-4.58-22.64-.16-.85.91-1.93,1.4-2.91.42.11.84.22,1.26.34Z"/>
  <path class="cls-1" d="M186.71,100.8c.52,2.12,1.08,4.23,1.55,6.35,1.15,5.23,2.33,10.46,3.33,15.73.16.86-.53,1.88-.82,2.83-.6-.77-1.55-1.47-1.75-2.33-1.47-6.31-2.84-12.64-4.12-19-.22-1.11.17-2.35.28-3.53.51-.02,1.02-.04,1.53-.06Z"/>
  <path class="cls-1" d="M203.81,97.03c1.66,8.8,3.2,16.96,4.74,25.12-3.72-2.17-7.51-22.21-4.74-25.12Z"/>
  <path class="cls-1" d="M206.71,219.92c-2.26-11.8-4.52-23.59-6.79-35.39l1.43-.28c2.32,11.78,4.64,23.57,6.96,35.35l-1.61.32Z"/>
  <path class="cls-1" d="M198.28,124.01c-1.67-7.9-3.34-15.81-5.01-23.71.65-.13,1.3-.26,1.95-.38,2.07,7.85,3.89,15.74,4.84,23.82-.59.09-1.19.18-1.78.28Z"/>
  <path class="cls-1" d="M214.84,120.84c-1.52-8.07-4.16-15.96-4.61-24.22.56-.1,1.12-.2,1.67-.3l4.8,24.27c-.62.08-1.25.16-1.87.24Z"/>
  <path class="cls-1" d="M222.27,118.1c-1.46-6.85-2.92-13.7-4.37-20.55.39-.08.78-.17,1.17-.25,2.46,6.67,3.22,13.71,4.18,20.7l-.98.1Z"/>
  <path d="M569.47,297.02c-1.33,44.8-20.26,87.71-58.54,121.64-36.77,32.58-80.1,45.7-128.52,40.37-44.67-4.91-82.56-24.41-112.14-58.56-30.19-34.87-43.35-75.65-39.04-121.59,4.61-49.1,27.13-88.92,65.89-118.92,33.64-26.04,72.63-36.32,114.92-33.72,32.26,1.99,61.79,12.34,88.21,31,43.88,31,69.14,80.01,69.21,139.78ZM400.53,401.28c63.39.32,115.55-51.59,115.92-115.37.36-61.85-51-113.31-113.44-113.65-65.34-.36-117.21,50.33-117.63,114.94-.41,63.44,50.38,113.76,115.15,114.08ZM346.13,426.36c2.28-6.01,4.46-11.55,6.44-17.16.49-1.39.36-3.01.52-4.52-1.86.09-3.91-.27-5.56.37-3.29,1.28-6.37,3.11-9.56,4.72-2.02-5.47-.96-11.78-6.58-16-3.68,6.74-7.11,13.01-10.62,19.44,1.68,1.32,3,2.36,4.53,3.56,1.92-2.77,3.63-5.23,5.71-8.24.88,4.27,1.6,7.73,2.4,11.59,3.48-2.05,6.39-3.77,10.02-5.9-1.12,3.91-2,6.94-2.93,10.18,1.94.68,3.55,1.24,5.62,1.96ZM375.36,432.58c.52.33,1.03.65,1.55.98,2.18-2.6,4.36-5.2,7.17-8.55v9.91h5.86c.31-5.96.67-11.66.85-17.38.04-1.31-.57-2.65-.87-3.97-1.59.39-3.49.35-4.72,1.24-2.89,2.08-5.45,4.6-8.12,6.92-.57-1.27-1.29-3.25-2.3-5.08-1.19-2.15-2.43-4.32-4.06-6.12-.47-.52-3.26-.09-3.42.4-2.05,6.49-3.82,13.07-5.76,19.97,2.44.54,4.17.92,5.89,1.31,1.11-3.02,2.07-5.63,3.34-9.06,1.8,3.7,3.2,6.56,4.6,9.43ZM518.53,348.38c.08,6.25,5.74,11.52,12.34,11.47,6.7-.05,11.93-5.08,11.83-11.38-.1-6.4-6.14-12.24-12.68-12.26-6.44-.02-11.57,5.41-11.49,12.16ZM433.4,410.03c2.3,7.28,4.46,14.08,6.66,21.03,1.25-.24,2.23-.36,3.16-.62.93-.26,1.82-.68,2.73-1.03,0-.66.02-1.15,0-1.64-.07-1.62-2.38-3.84.48-4.62,1.44-.39,3.74.61,5.02,1.71,3.2,2.75,4.2,2.86,8.15-.7-1.4-1.25-2.72-2.56-4.18-3.68-1.42-1.09-1.95-2.02-1.39-4.03,1.76-6.23-2.71-10.98-9.12-9.73-3.63.71-7.15,2.04-11.51,3.32ZM377.61,139.42c-2.25,1.44-6.33-1-6.05,3.5.25,4.07.99,8.17,2.06,12.1,1.39,5.12,5.57,7.38,11.36,6.73,5.44-.61,9.11-3.82,9.25-9,.13-4.67-.58-9.36-.94-14.4-2.4.21-4.32.38-6.53.57.33,3.92.73,7.49.86,11.06.05,1.42-.08,3.2-.89,4.21-.78.98-2.65,1.77-3.82,1.54-1.15-.22-2.63-1.7-2.91-2.87-1-4.2-1.55-8.51-2.38-13.45ZM288.5,388.79c2.35,3.05,3.58,6.48,7.66,3.63.36-.25,1.56.34,2.15.81,1.89,1.52,3.7,3.14,5.47,4.78.5.46,1.24,1.33,1.09,1.73-1.52,4.2,2.17,4.45,4.23,6.13.39-.45.77-.69.85-1.01,1.88-7.23,3.85-14.44,5.51-21.72.66-2.89-1.62-3.15-3.55-2.51-7.67,2.56-15.27,5.3-23.41,8.16ZM406.63,435.95c4.77-.33,9.1-.55,13.42-.95,4.83-.45,5.2-1.28,2.88-5.85-2.44.34-4.9.85-7.37.92-.88.02-1.78-1.04-2.68-1.61.78-.54,1.49-1.36,2.35-1.55,1.64-.37,3.37-.38,5.33-.56-.14-1.79-.26-3.22-.4-4.94-1.98.11-3.6.42-5.16.22-1.09-.14-2.1-.95-3.15-1.46.95-.52,1.85-1.33,2.86-1.49,2.26-.36,4.58-.39,7.12-.57-.35-2.17-.59-3.71-.88-5.51-5.59.5-10.83.97-16.4,1.47.7,7.44,1.36,14.34,2.07,21.87ZM468.06,153.51c-4.76-1.71-9.5-3.52-14.33-5.04-.68-.21-2.3.77-2.65,1.57-2.13,4.91-3.95,9.94-6,14.88-.87,2.09-.4,3.16,1.77,3.91,3.05,1.06,6.02,2.37,9,3.63,4.37,1.85,4.73,1.66,5.62-3.38-1.43-.6-2.99-1.08-4.38-1.87-1.51-.86-5.03-.42-3.87-3.22,1.32-3.17,3.65-.35,5.14.51,2.54,1.47,3.34.26,3.98-1.82.94-3.05-1.73-2.97-3.32-3.88-1.28-.74-4.22-.16-2.78-3.6,1.83.66,3.57,1.26,5.28,1.92q4.56,1.75,6.54-3.62ZM347.84,165.02c1.1-.58,2.26-1.23,3.45-1.82,4.48-2.24,6.3-6.49,4.6-10.8-1.57-4-5.88-5.76-10.65-4.1-3.38,1.18-6.66,2.68-10.62,4.31,3.09,6.95,6.07,13.67,9.03,20.34q5.86-2,4.18-7.93ZM471.74,420.29c2.36-1.55,5.29-2.55,5.35-3.69.21-4.24,4.09-4.53,6.14-6.69.48-.51,1.91-.93,2.27-.63,3.59,2.93,5.17-.2,7.73-2.45-6.81-4.23-13.23-8.41-19.87-12.24-2.25-1.3-4.58.78-4.27,3.67.74,7.02,1.67,14.03,2.64,22.04ZM293.43,368.63c5.68-3.33,5.92-4.28,2.5-9.05-.72-1.01-1.56-1.97-2.5-2.77-3.73-3.2-7.96-4.18-12.52-2.09-4.49,2.06-6.92,5.77-7.01,10.66-.09,4.87,2.16,8.65,6.53,10.98,2.58,1.37,5.13,1.57,7.84-1.08-1.84-1.73-3.9-3.08-5.12-4.98-1.15-1.8-2.31-4.43-1.79-6.21.47-1.6,3.34-3.66,4.93-3.48,2.03.23,4.02,2.31,5.66,3.96.86.86.94,2.5,1.47,4.06ZM312.31,187.75c2.38,0,4.62.31,6.74-.07,3.68-.66,6.74-2.73,7.17-6.61.24-2.17-.41-5.12-1.82-6.66-2.54-2.76-6.05-2.19-9.36-.68-1.23.56-2.64.7-4.23,1.09-.19-3.31,1.4-4.21,3.62-4.24,2.42-.03,3.29-1.62,2.74-3.39-.31-1.01-2.32-2.27-3.36-2.1-2.24.36-4.61,1.21-6.46,2.51-3.28,2.31-3.98,6.58-2.08,9.64,2.05,3.3,6.06,4.36,9.84,2.63,1.29-.59,2.59-1.16,3.97-1.77,1.29,3.13-.17,4.4-2.44,4.46-3.06.08-4.23,1.54-4.33,5.2ZM432.63,145.66c-3.8-5.87-10.6-7.69-16.1-4.56-5.46,3.11-7.66,10.19-4.83,15.51,3.01,5.65,10.4,8.09,16.1,5.33,3.29-1.6,3.54-3.29.5-5.29-.88-.58-2.52-.45-3.65-.11-2.79.83-4.99.13-6.54-2.17-1.58-2.34-1.25-4.72.65-6.83,1.99-2.2,4.7-2.51,6.75-.91,2.96,2.31,4.86,1.26,7.11-.98ZM525.71,368.59c-.62,1.72-.78,3.59-1.79,4.66-1.42,1.49-3.53,3.37-5.24,3.27-1.95-.11-4.41-1.81-5.54-3.54-1.86-2.83.51-4.95,2.37-7.08.92-1.05,1.87-3.29,1.36-4.13-1.23-2.03-3.32-1.52-5.23-.32-4.18,2.63-6.39,7.84-5.22,12.61,1.26,5.16,5.83,8.82,11.43,9.16,4.98.3,10.21-2.82,11.93-7.4,2.11-5.61.56-6.93-4.06-7.24ZM254.16,245.4c-7.8,13.99-3.16,31.65,7.96,31.55,2.52-11.64-1.07-21.71-7.96-31.55ZM273.95,273.04c-10.9,8.01-15.95,28.91-10.98,42.15,6.12.34,6.89-.28,6.04-5.83-1.42-9.31-.26-18.35,2.37-27.29.8-2.7,1.54-5.42,2.57-9.03ZM517.79,231.77c6.36,10.34,12.05,20.73,13.22,33.09,1.34-.16,2.07-.23,2.78-.34,4.63-.74,5-.9,3.69-5.49-1.49-5.22-3.2-10.48-5.67-15.28-2.94-5.7-7.91-9.61-14.02-11.98ZM282.61,221.38c3.67-.06,6.26-2.81,6.17-6.54-.08-3.44-3.1-6.28-6.62-6.25-3.19.03-6,3.02-6.03,6.43-.03,3.42,3.03,6.42,6.49,6.37ZM527.62,230.52c6.96-3.29,7.88-14.74,1.64-20.39-5.21,6.04-5.91,14.77-1.64,20.39ZM503.23,189.76c0-3.64-2.81-6.56-6.26-6.53-3.37.03-6.12,3.08-6.08,6.73.04,3.46,2.76,6.27,6.07,6.28,3.55,0,6.28-2.81,6.27-6.48ZM551.19,335.67c-2.39-1.51-3.83-3.14-5.16-3.04-1.17.08-2.21,2.08-3.31,3.23,1.23,1.14,2.34,2.97,3.73,3.2,1.06.18,2.45-1.66,4.74-3.38Z"/>
  <path d="M148.01,199.91c5.61-.02,10.94,4.81,11.07,10.03.13,5.35-5.21,10.69-10.79,10.81-5.65.12-10.58-4.65-10.65-10.29-.07-5.67,4.7-10.52,10.37-10.54Z"/>
  <path d="M203.05,414.85c2.75.32,4.66,1.63,4.88,4.57.19,2.57-2.27,4.9-4.96,4.93-2.61.03-5.12-2.38-4.9-4.98.24-2.91,2.13-4.27,4.98-4.52Z"/>
  <path d="M195.29,366.97c-9.66.07-18.26-8.28-18.2-17.64.07-9.83,8.42-18.16,18.19-18.15,9.51.01,18.19,8.41,18.31,17.72.13,9.53-8.45,18-18.3,18.06ZM195.17,335.39c-7.9-.05-13.66,5.73-13.67,13.69,0,7.6,6.16,13.6,13.95,13.58,7.32-.02,13.56-6.2,13.72-13.58.15-7.25-6.39-13.64-14-13.69Z"/>
  <path class="cls-1" d="M400.53,401.28c-64.78-.33-115.56-50.64-115.15-114.08.42-64.61,52.3-115.29,117.63-114.94,62.44.34,113.8,51.79,113.44,113.65-.37,63.79-52.53,115.7-115.92,115.37ZM426.63,383.25c44.91-10.91,85.87-59.71,73.3-119.53-9.73-46.29-58.02-88.46-121.57-74.9-58.91,12.57-90.05,71.71-75.88,124.21,7.06,26.14,22.14,46.47,45.79,59.93,18.77,10.68,39.01,15.39,61.31,13.7-2.46-19.02-4.86-37.52-7.41-57.19-12.18,14.88-25.38,25.68-44.24,27,1.55-2.26,3.55-3.95,5.33-5.84,1.88-1.99,3.66-4.1,5.29-6.3,1.45-1.96,2.64-4.1,3.95-6.17-21.6,11.84-31.11,14.31-38.8,9.85,8.01-6.62,16.49-12.92,24.13-20.13,11.26-10.62,18-20.75,18.02-25.31-12.54,8.72-25.67,13.97-41.11,7.48,19.28-10.72,33.59-25.43,41.17-46.68-5.51,3.68-10.25,7.34-15.45,10.17-5.26,2.87-11.08,3.75-18.11,2.02,16.17-12.72,28.53-27.18,36.5-45.82-4.15,2.32-7.7,4.31-11.25,6.29-.27-.32-.54-.64-.8-.95,8.34-8.92,14.23-19.25,17.93-31.93,7.19,10.9,16.16,18.09,26.8,23.42-.24.36-.47.72-.71,1.08-3.69-.55-7.39-1.09-11.08-1.64,13.12,14.77,29.5,23.96,48.02,30.31-1.85,1.5-3.65,2.79-5.66,3.44-7.89,2.58-15.53,1.01-23.05-1.78-1.74-.65-3.51-1.24-5.26-1.86-.15.37-.31.75-.46,1.12,15.01,15.9,33.34,25.62,55.44,28.7-11.16,11.19-24.58,11.14-38.69,8.96,15.34,14.04,33.99,21,54.74,25.72-12.78,10.67-26.06,7.26-39.26,4.58-.19.39-.37.79-.56,1.18,5.73,3.61,11.47,7.22,17.52,11.03-18.01,5.88-33.54-1.12-49.88-8.64,4.86,18.92,9.42,36.7,13.99,54.48Z"/>
  <path class="cls-1" d="M346.13,426.36c-2.07-.72-3.68-1.28-5.62-1.96.93-3.24,1.8-6.26,2.93-10.18-3.63,2.14-6.54,3.86-10.02,5.9-.8-3.87-1.51-7.32-2.4-11.59-2.08,3.01-3.79,5.47-5.71,8.24-1.53-1.2-2.85-2.24-4.53-3.56,3.51-6.43,6.94-12.71,10.62-19.44,5.61,4.21,4.56,10.52,6.58,16,3.19-1.61,6.27-3.44,9.56-4.72,1.65-.64,3.69-.28,5.56-.37-.16,1.51-.03,3.13-.52,4.52-1.99,5.61-4.16,11.15-6.44,17.16Z"/>
  <path class="cls-1" d="M375.36,432.58c-1.4-2.87-2.8-5.73-4.6-9.43-1.26,3.43-2.22,6.03-3.34,9.06-1.72-.38-3.46-.77-5.89-1.31,1.94-6.9,3.71-13.48,5.76-19.97.16-.49,2.94-.93,3.42-.4,1.63,1.8,2.87,3.98,4.06,6.12,1.01,1.82,1.73,3.81,2.3,5.08,2.67-2.32,5.23-4.84,8.12-6.92,1.23-.89,3.13-.85,4.72-1.24.31,1.32.91,2.66.87,3.97-.18,5.72-.54,11.42-.85,17.38h-5.86v-9.91c-2.81,3.35-4.99,5.95-7.17,8.55-.52-.33-1.03-.65-1.55-.98Z"/>
  <path class="cls-1" d="M518.53,348.38c-.08-6.75,5.05-12.18,11.49-12.16,6.54.02,12.58,5.86,12.68,12.26.1,6.3-5.14,11.33-11.83,11.38-6.6.05-12.26-5.22-12.34-11.47ZM531.22,353.5c2.5.03,4.99-2.42,5.11-5.02.12-2.76-3.07-5.65-6.3-5.7-2.61-.04-5.22,2.28-5.35,4.76-.16,2.9,3.16,5.92,6.54,5.96Z"/>
  <path class="cls-1" d="M433.4,410.03c4.36-1.28,7.87-2.61,11.51-3.32,6.41-1.26,10.87,3.49,9.12,9.73-.57,2.01-.03,2.95,1.39,4.03,1.46,1.12,2.78,2.43,4.18,3.68-3.95,3.55-4.95,3.45-8.15.7-1.28-1.1-3.58-2.11-5.02-1.71-2.86.78-.55,3-.48,4.62.02.49,0,.98,0,1.64-.91.35-1.8.76-2.73,1.03-.93.27-1.9.38-3.16.62-2.2-6.95-4.35-13.75-6.66-21.03ZM445.67,411.14c-1.82,1.76-3.29,2.74-3.98,4.11-.23.45,2.1,2.91,2.37,2.77,1.55-.82,2.95-2.05,4.1-3.4.17-.2-1.22-1.74-2.49-3.48Z"/>
  <path class="cls-1" d="M377.61,139.42c.83,4.95,1.38,9.25,2.38,13.45.28,1.18,1.76,2.65,2.91,2.87,1.18.23,3.04-.57,3.82-1.54.81-1.01.94-2.79.89-4.21-.13-3.57-.54-7.14-.86-11.06,2.21-.19,4.12-.36,6.53-.57.36,5.05,1.07,9.74.94,14.4-.14,5.18-3.81,8.39-9.25,9-5.79.65-9.97-1.6-11.36-6.73-1.07-3.94-1.8-8.04-2.06-12.1-.28-4.5,3.8-2.06,6.05-3.5Z"/>
  <path class="cls-1" d="M288.5,388.79c8.14-2.86,15.75-5.6,23.41-8.16,1.93-.64,4.22-.38,3.55,2.51-1.67,7.28-3.64,14.49-5.51,21.72-.08.32-.46.56-.85,1.01-2.06-1.68-5.75-1.93-4.23-6.13.15-.4-.59-1.27-1.09-1.73-1.78-1.65-3.59-3.27-5.47-4.78-.59-.47-1.78-1.07-2.15-.81-4.08,2.85-5.31-.58-7.66-3.63ZM302.03,390.52c1.82,1.23,2.8,1.89,4.16,2.81.74-1.86,1.29-3.24,2.18-5.48-2.34.98-3.74,1.58-6.34,2.67Z"/>
  <path class="cls-1" d="M406.63,435.95c-.71-7.53-1.37-14.43-2.07-21.87,5.57-.5,10.81-.97,16.4-1.47.29,1.8.53,3.34.88,5.51-2.54.18-4.85.21-7.12.57-1.01.16-1.91.97-2.86,1.49,1.05.51,2.06,1.32,3.15,1.46,1.56.19,3.18-.11,5.16-.22.14,1.72.25,3.15.4,4.94-1.96.18-3.68.19-5.33.56-.86.19-1.57,1.01-2.35,1.55.89.57,1.8,1.63,2.68,1.61,2.47-.07,4.93-.58,7.37-.92,2.32,4.57,1.95,5.4-2.88,5.85-4.32.4-8.65.62-13.42.95Z"/>
  <path class="cls-1" d="M468.06,153.51q-1.99,5.37-6.54,3.62c-1.71-.66-3.45-1.25-5.28-1.92-1.45,3.43,1.5,2.86,2.78,3.6,1.59.92,4.26.83,3.32,3.88-.64,2.08-1.44,3.29-3.98,1.82-1.49-.86-3.82-3.67-5.14-.51-1.16,2.8,2.36,2.36,3.87,3.22,1.39.79,2.94,1.27,4.38,1.87-.89,5.04-1.25,5.23-5.62,3.38-2.98-1.26-5.95-2.58-9-3.63-2.17-.75-2.64-1.82-1.77-3.91,2.05-4.94,3.88-9.98,6-14.88.34-.8,1.97-1.78,2.65-1.57,4.83,1.52,9.57,3.33,14.33,5.04Z"/>
  <path class="cls-1" d="M347.84,165.02q1.68,5.93-4.18,7.93c-2.96-6.67-5.95-13.39-9.03-20.34,3.97-1.62,7.24-3.13,10.62-4.31,4.78-1.66,9.08.09,10.65,4.1,1.69,4.31-.13,8.56-4.6,10.8-1.19.59-2.35,1.24-3.45,1.82ZM346.24,160.9c1.68-2.2,2.88-3.49,3.61-5,.13-.28-1.95-2.3-2.48-2.1-1.42.53-2.91,1.63-3.62,2.92-.31.56,1.22,2.14,2.49,4.17Z"/>
  <path class="cls-1" d="M471.74,420.29c-.97-8.01-1.89-15.01-2.64-22.04-.31-2.89,2.02-4.97,4.27-3.67,6.63,3.83,13.06,8.01,19.87,12.24-2.56,2.25-4.15,5.38-7.73,2.45-.37-.3-1.79.12-2.27.63-2.05,2.16-5.93,2.44-6.14,6.69-.06,1.14-2.99,2.14-5.35,3.69ZM480.59,406.09c-1.91-1.24-3.13-2.03-5.15-3.34.34,2.44.55,3.89.84,5.95,1.55-.94,2.53-1.53,4.31-2.61Z"/>
  <path class="cls-1" d="M293.43,368.63c-.53-1.56-.61-3.2-1.47-4.06-1.64-1.65-3.63-3.73-5.66-3.96-1.58-.18-4.45,1.88-4.93,3.48-.52,1.77.64,4.41,1.79,6.21,1.21,1.9,3.28,3.25,5.12,4.98-2.71,2.64-5.27,2.45-7.84,1.08-4.36-2.32-6.62-6.11-6.53-10.98.09-4.88,2.52-8.6,7.01-10.66,4.56-2.09,8.79-1.12,12.52,2.09.94.8,1.78,1.77,2.5,2.77,3.42,4.77,3.18,5.72-2.5,9.05Z"/>
  <path class="cls-1" d="M312.31,187.75c.1-3.66,1.27-5.12,4.33-5.2,2.27-.06,3.73-1.33,2.44-4.46-1.38.62-2.68,1.18-3.97,1.77-3.78,1.74-7.78.67-9.84-2.63-1.9-3.06-1.2-7.33,2.08-9.64,1.85-1.3,4.22-2.15,6.46-2.51,1.03-.17,3.05,1.1,3.36,2.1.55,1.77-.32,3.36-2.74,3.39-2.22.03-3.81.93-3.62,4.24,1.58-.39,3-.53,4.23-1.09,3.31-1.51,6.82-2.08,9.36.68,1.41,1.53,2.06,4.48,1.82,6.66-.43,3.88-3.49,5.95-7.17,6.61-2.11.38-4.35.07-6.74.07Z"/>
  <path class="cls-1" d="M432.63,145.66c-2.25,2.24-4.15,3.29-7.11.98-2.05-1.6-4.76-1.3-6.75.91-1.91,2.11-2.23,4.49-.65,6.83,1.55,2.3,3.75,3.01,6.54,2.17,1.13-.34,2.77-.47,3.65.11,3.05,2,2.8,3.68-.5,5.29-5.7,2.77-13.09.32-16.1-5.33-2.84-5.32-.63-12.4,4.83-15.51,5.49-3.13,12.29-1.32,16.1,4.56Z"/>
  <path class="cls-1" d="M525.71,368.59c4.62.31,6.18,1.63,4.06,7.24-1.73,4.59-6.95,7.7-11.93,7.4-5.6-.34-10.17-4-11.43-9.16-1.17-4.77,1.04-9.99,5.22-12.61,1.91-1.2,4-1.71,5.23.32.5.83-.45,3.07-1.36,4.13-1.86,2.14-4.23,4.25-2.37,7.08,1.14,1.73,3.59,3.43,5.54,3.54,1.71.1,3.82-1.78,5.24-3.27,1.01-1.07,1.18-2.94,1.79-4.66Z"/>
  <path class="cls-1" d="M254.16,245.4c6.9,9.84,10.48,19.92,7.96,31.55-11.12.1-15.76-17.56-7.96-31.55Z"/>
  <path class="cls-1" d="M273.95,273.04c-1.02,3.6-1.77,6.32-2.57,9.03-2.63,8.94-3.79,17.98-2.37,27.29.85,5.56.08,6.18-6.04,5.83-4.97-13.24.08-34.14,10.98-42.15Z"/>
  <path class="cls-1" d="M517.79,231.77c6.11,2.37,11.08,6.28,14.02,11.98,2.47,4.8,4.18,10.06,5.67,15.28,1.31,4.59.94,4.75-3.69,5.49-.72.11-1.44.18-2.78.34-1.17-12.35-6.86-22.75-13.22-33.09Z"/>
  <path class="cls-1" d="M282.61,221.38c-3.45.06-6.52-2.95-6.49-6.37.03-3.41,2.84-6.4,6.03-6.43,3.53-.03,6.54,2.81,6.62,6.25.09,3.73-2.5,6.48-6.17,6.54Z"/>
  <path class="cls-1" d="M527.62,230.52c-4.26-5.62-3.56-14.35,1.64-20.39,6.24,5.65,5.32,17.1-1.64,20.39Z"/>
  <path class="cls-1" d="M503.23,189.76c0,3.67-2.72,6.49-6.27,6.48-3.31,0-6.02-2.82-6.07-6.28-.04-3.65,2.7-6.69,6.08-6.73,3.46-.03,6.26,2.88,6.26,6.53Z"/>
  <path class="cls-1" d="M551.19,335.67c-2.29,1.73-3.68,3.56-4.74,3.38-1.38-.23-2.5-2.06-3.73-3.2,1.1-1.15,2.14-3.14,3.31-3.23,1.32-.09,2.77,1.53,5.16,3.04Z"/>
  <path class="cls-1" d="M195.17,335.39c7.61.05,14.15,6.44,14,13.69-.15,7.38-6.39,13.56-13.72,13.58-7.79.02-13.96-5.98-13.95-13.58,0-7.97,5.78-13.74,13.67-13.69Z"/>
  <path d="M426.63,383.25c-4.56-17.77-9.13-35.56-13.99-54.48,16.33,7.52,31.87,14.52,49.88,8.64-6.06-3.81-11.79-7.42-17.52-11.03.19-.39.37-.79.56-1.18,13.19,2.68,26.47,6.09,39.26-4.58-20.75-4.72-39.39-11.68-54.74-25.72,14.11,2.18,27.53,2.24,38.69-8.96-22.1-3.08-40.42-12.8-55.44-28.7.15-.37.31-.75.46-1.12,1.75.62,3.52,1.21,5.26,1.86,7.52,2.79,15.16,4.36,23.05,1.78,2.01-.66,3.81-1.94,5.66-3.44-18.52-6.35-34.9-15.54-48.02-30.31,3.69.55,7.39,1.09,11.08,1.64.24-.36.47-.72.71-1.08-10.64-5.32-19.61-12.52-26.8-23.42-3.7,12.68-9.59,23.01-17.93,31.93.27.32.54.64.8.95,3.55-1.99,7.1-3.97,11.25-6.29-7.97,18.64-20.33,33.1-36.5,45.82,7.03,1.74,12.85.85,18.11-2.02,5.19-2.83,9.93-6.49,15.45-10.17-7.59,21.24-21.89,35.95-41.17,46.68,15.45,6.49,28.57,1.25,41.11-7.48-.02,4.57-6.76,14.69-18.02,25.31-7.64,7.2-16.12,13.51-24.13,20.13,7.69,4.45,17.2,1.98,38.8-9.85-1.31,2.06-2.5,4.21-3.95,6.17-1.63,2.2-3.41,4.3-5.29,6.3-1.78,1.89-3.78,3.59-5.33,5.84,18.86-1.32,32.07-12.12,44.24-27,2.55,19.67,4.95,38.18,7.41,57.19-22.3,1.7-42.54-3.01-61.31-13.7-23.65-13.46-38.73-33.79-45.79-59.93-14.17-52.5,16.97-111.64,75.88-124.21,63.55-13.56,111.84,28.6,121.57,74.9,12.57,59.82-28.39,108.62-73.3,119.53ZM411.39,198.44c-.18.5-.35,1-.53,1.5,2.27,1.34,4.38,3.27,6.83,3.92,17.51,4.68,32.19,13.83,44.33,27.2,6.67,7.35,12.07,15.5,15.79,24.61,6.33-.61,6.79-1.08,4.38-6.5-11.91-26.83-32.22-43.49-60.95-49.71-3.21-.69-6.56-.7-9.85-1.02Z"/>
  <path d="M531.22,353.5c-3.39-.04-6.7-3.06-6.54-5.96.13-2.48,2.74-4.8,5.35-4.76,3.23.05,6.43,2.94,6.3,5.7-.12,2.6-2.6,5.05-5.11,5.02Z"/>
  <path d="M445.67,411.14c1.26,1.74,2.66,3.28,2.49,3.48-1.15,1.35-2.55,2.58-4.1,3.4-.27.14-2.59-2.31-2.37-2.77.68-1.37,2.16-2.35,3.98-4.11Z"/>
  <path d="M302.03,390.52c2.6-1.09,4.01-1.69,6.34-2.67-.89,2.24-1.44,3.62-2.18,5.48-1.36-.92-2.35-1.59-4.16-2.81Z"/>
  <path d="M346.24,160.9c-1.27-2.04-2.8-3.61-2.49-4.17.71-1.29,2.21-2.39,3.62-2.92.53-.2,2.61,1.82,2.48,2.1-.73,1.51-1.93,2.79-3.61,5Z"/>
  <path d="M480.59,406.09c-1.78,1.08-2.77,1.67-4.31,2.61-.29-2.06-.49-3.51-.84-5.95,2.02,1.31,3.24,2.1,5.15,3.34Z"/>
  <path class="cls-1" d="M411.39,198.44c3.29.32,6.64.33,9.85,1.02,28.73,6.22,49.04,22.88,60.95,49.71,2.41,5.42,1.94,5.9-4.38,6.5-3.72-9.1-9.12-17.26-15.79-24.61-12.14-13.38-26.82-22.52-44.33-27.2-2.45-.66-4.56-2.58-6.83-3.92.18-.5.35-1,.53-1.5Z"/>
</svg>